<mxfile host="app.diagrams.net" modified="2023-12-30T15:17:52.504Z" agent="Mozilla/5.0 (Windows NT 10.0; Win64; x64) AppleWebKit/537.36 (KHTML, like Gecko) Chrome/120.0.0.0 Safari/537.36" etag="QCtOkXcCm-FIpAMkyhz1" version="22.1.15" type="github">
  <diagram id="C5RBs43oDa-KdzZeNtuy" name="Page-1">
    <mxGraphModel dx="733" dy="362" grid="1" gridSize="10" guides="1" tooltips="1" connect="1" arrows="1" fold="1" page="1" pageScale="1" pageWidth="827" pageHeight="1169" math="0" shadow="0">
      <root>
        <mxCell id="WIyWlLk6GJQsqaUBKTNV-0" />
        <mxCell id="WIyWlLk6GJQsqaUBKTNV-1" parent="WIyWlLk6GJQsqaUBKTNV-0" />
        <mxCell id="il5aHBeMJItf4aYgswhj-1" value="UserController" style="swimlane;fontStyle=1;align=center;verticalAlign=top;childLayout=stackLayout;horizontal=1;startSize=26;horizontalStack=0;resizeParent=1;resizeParentMax=0;resizeLast=0;collapsible=1;marginBottom=0;whiteSpace=wrap;html=1;" vertex="1" parent="WIyWlLk6GJQsqaUBKTNV-1">
          <mxGeometry x="70" y="30" width="390" height="200" as="geometry" />
        </mxCell>
        <mxCell id="il5aHBeMJItf4aYgswhj-2" value="- _sender : ISender" style="text;strokeColor=none;fillColor=none;align=left;verticalAlign=top;spacingLeft=4;spacingRight=4;overflow=hidden;rotatable=0;points=[[0,0.5],[1,0.5]];portConstraint=eastwest;whiteSpace=wrap;html=1;" vertex="1" parent="il5aHBeMJItf4aYgswhj-1">
          <mxGeometry y="26" width="390" height="26" as="geometry" />
        </mxCell>
        <mxCell id="il5aHBeMJItf4aYgswhj-3" value="" style="line;strokeWidth=1;fillColor=none;align=left;verticalAlign=middle;spacingTop=-1;spacingLeft=3;spacingRight=3;rotatable=0;labelPosition=right;points=[];portConstraint=eastwest;strokeColor=inherit;" vertex="1" parent="il5aHBeMJItf4aYgswhj-1">
          <mxGeometry y="52" width="390" height="8" as="geometry" />
        </mxCell>
        <mxCell id="il5aHBeMJItf4aYgswhj-4" value="+&amp;nbsp;GetById&lt;span style=&quot;background-color: initial;&quot;&gt;(Guid):&amp;nbsp;&lt;/span&gt;Task&amp;lt;ActionResult&amp;lt;UserResultDto&amp;gt;&amp;gt;&lt;br&gt;+ GetAll():&amp;nbsp;Task&amp;lt;IEnumerable&amp;lt;User&amp;gt;&amp;gt;&lt;br&gt;+ Post(AddUserDto):&amp;nbsp;Task&amp;lt;ActionResult&amp;lt;UserResultDto&amp;gt;&amp;gt;&lt;br&gt;+ Delete(Guid):&amp;nbsp;Task&amp;lt;ActionResult&amp;lt;UserResultDto&amp;gt;&amp;gt;&lt;br&gt;+ Put(Guid, UpdateUserDto):&amp;nbsp;Task&amp;lt;ActionResult&amp;lt;UserResultDto&amp;gt;&amp;gt;" style="text;strokeColor=none;fillColor=none;align=left;verticalAlign=top;spacingLeft=4;spacingRight=4;overflow=hidden;rotatable=0;points=[[0,0.5],[1,0.5]];portConstraint=eastwest;whiteSpace=wrap;html=1;" vertex="1" parent="il5aHBeMJItf4aYgswhj-1">
          <mxGeometry y="60" width="390" height="140" as="geometry" />
        </mxCell>
        <mxCell id="il5aHBeMJItf4aYgswhj-10" value="Classname" style="swimlane;fontStyle=1;align=center;verticalAlign=top;childLayout=stackLayout;horizontal=1;startSize=26;horizontalStack=0;resizeParent=1;resizeParentMax=0;resizeLast=0;collapsible=1;marginBottom=0;whiteSpace=wrap;html=1;" vertex="1" parent="WIyWlLk6GJQsqaUBKTNV-1">
          <mxGeometry x="165" y="340" width="160" height="86" as="geometry" />
        </mxCell>
        <mxCell id="il5aHBeMJItf4aYgswhj-11" value="+ field: type" style="text;strokeColor=none;fillColor=none;align=left;verticalAlign=top;spacingLeft=4;spacingRight=4;overflow=hidden;rotatable=0;points=[[0,0.5],[1,0.5]];portConstraint=eastwest;whiteSpace=wrap;html=1;" vertex="1" parent="il5aHBeMJItf4aYgswhj-10">
          <mxGeometry y="26" width="160" height="26" as="geometry" />
        </mxCell>
        <mxCell id="il5aHBeMJItf4aYgswhj-12" value="" style="line;strokeWidth=1;fillColor=none;align=left;verticalAlign=middle;spacingTop=-1;spacingLeft=3;spacingRight=3;rotatable=0;labelPosition=right;points=[];portConstraint=eastwest;strokeColor=inherit;" vertex="1" parent="il5aHBeMJItf4aYgswhj-10">
          <mxGeometry y="52" width="160" height="8" as="geometry" />
        </mxCell>
        <mxCell id="il5aHBeMJItf4aYgswhj-13" value="+ method(type): type" style="text;strokeColor=none;fillColor=none;align=left;verticalAlign=top;spacingLeft=4;spacingRight=4;overflow=hidden;rotatable=0;points=[[0,0.5],[1,0.5]];portConstraint=eastwest;whiteSpace=wrap;html=1;" vertex="1" parent="il5aHBeMJItf4aYgswhj-10">
          <mxGeometry y="60" width="160" height="26" as="geometry" />
        </mxCell>
      </root>
    </mxGraphModel>
  </diagram>
</mxfile>
